# xmcd CD database file generated by LOLA_Freedb v0.9beta0
#
# Track frame offsets:
#      150
#      35021
#      64000
#      94688
#      127459
#      159534
#      193890
#      226431
#      258954
#      288909
#
# Disc length: 4248 seconds
#
# Revision: 2
# Processed by: cddbd v1.5.2PL0 Copyright (c) Steve Scherf et al.
# Submitted via: LOLA_Freedb v0.9beta0
#
DISCID=9310960a
DTITLE=Eric Alexander Quartet - Lazy Afternoon
DYEAR=2009
DGENRE=Jazz
TTITLE0=Eric Alexander Quartet - Feelin' Good
TTITLE1=Lazy Afternoon
TTITLE2=When Love Was New
TTITLE3=Slow Hot Wind
TTITLE4=My Funny Valentine
TTITLE5=Goodbye
TTITLE6=When We Were One
TTITLE7=The Good Life
TTITLE8=Angel Eyes
TTITLE9=Blue Gardenia
EXTD=YEAR: 2009
EXTT0=
EXTT1=
EXTT2=
EXTT3=
EXTT4=
EXTT5=
EXTT6=
EXTT7=
EXTT8=
EXTT9=
PLAYORDER=
